# xmcd
#
# Track frame offsets: 
#        150
#        18407
#        33606
#        59503
#        73841
#        92162
#        106492
#        126717
#        132346
#        151843
#        168033
#        180311
#        195808
#        209874
#        222871
#        235076
#        244949
#
# Disc length: 3463 seconds
#
# Revision: 0
# Processed by: cddbd v1.5.2PL0 Copyright (c) Steve Scherf et al.
# Submitted via: ExactAudioCopy v0.99pb4
#
DISCID=f60d8511
DTITLE=Mark Cook - Bluzin' It
DYEAR=2012
DGENRE=Blues
TTITLE0=Sweet Sound Of Memphis
TTITLE1=Cataract Woman
TTITLE2=Lawn Service Specialist
TTITLE3=Blues Shack
TTITLE4=Take It Or Leave It
TTITLE5=Cool Man Cool
TTITLE6=The Life I Love
TTITLE7=Cook's Rag
TTITLE8=Highway Miles
TTITLE9=Hohner and Steel
TTITLE10=Hillside Blues
TTITLE11=Mine All Mine
TTITLE12=Catfish Swimmin'
TTITLE13=Cosmo Boogie
TTITLE14=Dusty Dog
TTITLE15=Blue Harp Special
TTITLE16=Gypsy's Curse
EXTD=
EXTT0=
EXTT1=
EXTT2=
EXTT3=
EXTT4=
EXTT5=
EXTT6=
EXTT7=
EXTT8=
EXTT9=
EXTT10=
EXTT11=
EXTT12=
EXTT13=
EXTT14=
EXTT15=
EXTT16=
PLAYORDER=
